<?xml version="1.0" standalone="no"?>
<!DOCTYPE svg PUBLIC "-//W3C//DTD SVG 20010904//EN"
 "http://www.w3.org/TR/2001/REC-SVG-20010904/DTD/svg10.dtd">
<svg version="1.0" xmlns="http://www.w3.org/2000/svg"
 width="500.000000pt" height="500.000000pt" viewBox="0 0 500.000000 500.000000"
 preserveAspectRatio="xMidYMid meet">

<g transform="translate(0.000000,500.000000) scale(0.100000,-0.100000)"
fill="#000000" stroke="none">
<path d="M1950 3850 c-9 -6 -10 -10 -3 -10 6 0 15 5 18 10 8 12 4 12 -15 0z"/>
<path d="M2518 3823 c7 -3 16 -2 19 1 4 3 -2 6 -13 5 -11 0 -14 -3 -6 -6z"/>
<path d="M1283 3773 c0 -8 6 -9 19 -2 10 5 18 11 18 12 0 2 -8 3 -18 3 -10 0
-19 -6 -19 -13z"/>
<path d="M2158 3773 c7 -3 16 -2 19 1 4 3 -2 6 -13 5 -11 0 -14 -3 -6 -6z"/>
<path d="M2140 3749 c0 -5 5 -7 10 -4 6 3 10 8 10 11 0 2 -4 4 -10 4 -5 0 -10
-5 -10 -11z"/>
<path d="M2210 3740 c0 -5 7 -7 15 -4 8 4 15 8 15 10 0 2 -7 4 -15 4 -8 0 -15
-4 -15 -10z"/>
<path d="M2358 3733 c7 -3 16 -2 19 1 4 3 -2 6 -13 5 -11 0 -14 -3 -6 -6z"/>
<path d="M4375 3720 c-3 -5 -1 -10 4 -10 6 0 11 5 11 10 0 6 -2 10 -4 10 -3 0
-8 -4 -11 -10z"/>
<path d="M803 3700 c-3 -35 23 -44 56 -19 34 25 32 40 -4 37 -17 -2 -21 -6
-14 -14 7 -8 6 -15 -2 -20 -8 -5 -9 -3 -4 7 7 11 5 11 -10 -1 -17 -14 -18 -13
-12 2 3 10 3 19 -1 22 -4 3 -8 -4 -9 -14z"/>
<path d="M974 3699 c0 -13 3 -15 13 -7 7 6 13 14 13 18 0 3 -6 7 -13 7 -7 0
-13 -8 -13 -18z"/>
<path d="M2507 3713 c-11 -10 13 -32 29 -26 9 3 12 0 9 -8 -2 -8 4 -25 15 -39
15 -20 18 -21 16 -7 -1 10 -7 22 -12 25 -5 4 -9 13 -10 20 -3 33 -4 34 -19 22
-14 -11 -19 -7 -16 13 1 9 -4 9 -12 0z"/>
<path d="M4493 3680 c0 -25 2 -35 4 -22 2 12 2 32 0 45 -2 12 -4 2 -4 -23z"/>
<path d="M1092 3680 c0 -19 2 -27 5 -17 2 9 2 25 0 35 -3 9 -5 1 -5 -18z"/>
<path d="M2726 3695 c-3 -8 -1 -15 4 -15 6 0 10 7 10 15 0 8 -2 15 -4 15 -2 0
-6 -7 -10 -15z"/>
<path d="M1018 3672 c-13 -24 -12 -28 1 -28 11 0 16 10 17 28 1 35 -1 35 -18
0z"/>
<path d="M1357 3678 c-5 -18 -9 -19 -21 -9 -13 11 -15 9 -11 -9 3 -15 0 -20
-9 -17 -17 7 -15 -15 2 -35 6 -8 8 -19 4 -23 -4 -5 -1 -5 6 -1 7 4 12 2 12 -5
0 -7 3 -9 7 -6 3 4 12 2 20 -5 11 -9 12 -7 7 7 -5 12 -4 16 4 11 14 -9 52 28
52 52 0 21 -36 46 -52 36 -8 -5 -9 -2 -5 9 3 10 3 17 -2 17 -5 0 -11 -10 -14
-22z m38 -19 c-4 -5 0 -9 8 -9 7 0 14 -7 14 -15 0 -10 -6 -14 -15 -10 -10 3
-12 0 -9 -10 4 -8 2 -17 -3 -20 -6 -4 -10 2 -11 12 0 15 -2 15 -7 3 -4 -9 -12
-15 -18 -15 -14 0 -49 35 -35 35 22 0 26 -2 23 -12 -1 -5 2 -7 7 -3 6 3 8 12
4 20 -3 8 0 15 6 15 6 0 11 -5 11 -12 0 -6 3 -8 6 -5 4 4 2 12 -4 20 -8 10 -6
13 9 14 11 1 17 -2 14 -8z"/>
<path d="M1624 3681 c0 -11 5 -17 14 -14 14 6 12 25 -4 30 -5 2 -10 -5 -10
-16z"/>
<path d="M2000 3677 c-16 -12 -18 -18 -7 -14 9 4 17 2 17 -3 0 -5 10 -14 21
-21 15 -8 19 -8 15 0 -10 15 7 14 23 -1 9 -9 12 -9 7 -1 -3 6 -3 13 2 15 4 1
-1 12 -12 22 -17 17 -19 17 -13 2 5 -12 3 -16 -5 -14 -7 3 -13 10 -13 16 0 20
-10 20 -35 -1z m30 -12 c7 -9 8 -15 2 -15 -5 0 -12 7 -16 15 -3 8 -4 15 -2 15
2 0 9 -7 16 -15z"/>
<path d="M4370 3690 c-8 -5 -10 -10 -5 -10 6 0 17 5 25 10 8 5 11 10 5 10 -5
0 -17 -5 -25 -10z"/>
<path d="M995 3679 c-4 -6 -5 -12 -2 -15 2 -3 7 2 10 11 7 17 1 20 -8 4z"/>
<path d="M2300 3679 c0 -5 5 -7 10 -4 6 3 10 8 10 11 0 2 -4 4 -10 4 -5 0 -10
-5 -10 -11z"/>
<path d="M4328 3683 c7 -3 16 -2 19 1 4 3 -2 6 -13 5 -11 0 -14 -3 -6 -6z"/>
<path d="M1648 3662 l-28 -17 0 -125 0 -125 72 0 73 0 -6 80 c-4 44 -4 84 -1
89 3 5 0 6 -6 2 -6 -3 -16 3 -22 14 -6 11 -15 20 -19 20 -14 0 -23 -33 -11
-40 6 -4 3 -15 -8 -30 l-17 -25 -5 45 -6 45 -11 -55 -11 -55 -1 84 c-1 76 1
83 17 79 12 -4 18 1 19 13 1 11 1 19 0 19 -1 0 -14 -8 -29 -18z m99 -164 c-3
-8 -6 -5 -6 6 -1 11 2 17 5 13 3 -3 4 -12 1 -19z"/>
<path d="M2770 3670 c24 -8 127 -14 119 -6 -2 2 -35 6 -74 9 -43 3 -60 2 -45
-3z"/>
<path d="M1959 3668 c0 -2 -2 -15 -4 -30 -3 -22 -1 -25 10 -15 8 7 10 16 4 23
-5 6 -6 14 -2 17 3 4 3 7 0 7 -4 0 -7 -1 -8 -2z"/>
<path d="M4362 3654 c10 -10 20 -15 24 -12 3 4 -5 12 -18 18 -22 12 -22 12 -6
-6z"/>
<path d="M2732 3651 c-9 -5 -3 -8 17 -7 17 1 31 4 31 9 0 10 -32 9 -48 -2z"/>
<path d="M682 3630 c0 -14 2 -19 5 -12 2 6 2 18 0 25 -3 6 -5 1 -5 -13z"/>
<path d="M2291 3610 c-1 -19 -4 -48 -6 -65 -2 -16 -6 -92 -9 -167 -6 -128 -9
-144 -42 -222 -56 -134 -158 -220 -304 -256 l-65 -16 -3 -103 -3 -103 -59 -77
c-101 -131 -108 -138 -120 -119 -5 9 -29 40 -53 70 -100 126 -96 115 -99 229
-3 96 -5 104 -23 105 -69 5 -235 87 -267 133 -8 12 -18 18 -23 13 -5 -4 -5 -2
-2 4 4 6 -3 23 -16 36 -12 14 -23 31 -25 37 -1 6 -11 31 -21 54 -28 61 -29 69
-37 222 -4 77 -8 154 -9 170 -2 17 -4 41 -5 55 -1 25 -1 25 -10 2 -5 -12 -7
-28 -4 -36 3 -8 1 -17 -5 -21 -7 -4 -11 6 -11 27 -1 29 -2 31 -12 13 -11 -19
-11 -19 -19 0 -6 15 -8 9 -8 -20 -2 -49 -20 -29 -23 25 -1 19 -5 -1 -8 -45 -6
-78 -6 -78 -10 -25 -3 48 -4 44 -9 -35 -3 -49 -2 -96 3 -103 5 -7 6 -15 2 -19
-3 -3 -6 -1 -6 7 0 9 -3 10 -14 1 -9 -7 -22 -8 -37 -3 -13 5 -30 7 -38 4 -8
-3 -11 0 -7 6 9 15 -28 34 -41 21 -7 -7 -9 -2 -5 18 2 15 1 25 -3 20 -12 -10
-35 49 -35 89 0 19 -4 34 -9 34 -4 0 -6 -11 -3 -25 4 -22 1 -25 -26 -25 -21 0
-32 6 -35 18 -4 13 -5 12 -6 -4 0 -12 -8 -24 -16 -28 -12 -4 -15 3 -16 32 -2
34 -2 35 -7 7 -4 -26 -5 -28 -12 -10 -13 30 -17 -180 -7 -295 8 -86 19 -150
27 -150 4 0 7 -14 8 -30 1 -46 92 -226 155 -308 32 -40 57 -74 57 -76 0 -3
-26 -10 -57 -16 -135 -27 -290 -90 -398 -163 -136 -92 -277 -264 -356 -431
-78 -168 -99 -307 -99 -673 l0 -252 83 -3 82 -3 5 -335 5 -335 32 -67 c40 -86
106 -151 191 -191 57 -27 81 -32 165 -35 l98 -4 19 -38 c10 -20 35 -51 54 -68
73 -64 55 -63 982 -60 l840 3 49 25 c36 18 61 42 87 80 l36 55 100 6 c129 7
204 41 285 129 98 105 101 120 107 505 l5 330 78 3 77 3 0 297 c0 282 -7 381
-36 480 l-6 22 511 0 511 0 0 -85 0 -85 -240 0 -240 0 0 -560 0 -560 560 0
560 0 0 560 0 560 -245 0 -245 0 0 160 0 160 -616 2 c-601 3 -617 3 -628 23
-162 287 -394 466 -694 536 -51 12 -92 25 -92 28 0 4 12 22 26 39 l27 32 673
0 674 0 0 -240 0 -240 560 0 560 0 0 555 0 555 -558 0 -557 0 -1 -37 c-1 -21
-2 -129 -3 -240 l-1 -203 -624 0 -624 0 28 68 c16 37 31 78 33 92 2 14 7 32
10 40 20 44 32 399 15 416 -3 3 -15 6 -27 7 -11 1 -21 5 -21 10 0 5 -8 3 -17
-4 -10 -9 -14 -9 -10 -2 4 7 5 24 1 39 -7 25 -8 26 -15 8 -4 -11 -4 -38 0 -60
7 -36 5 -40 -13 -40 -12 0 -24 4 -27 8 -3 5 -11 -4 -18 -19 -24 -52 -29 -58
-41 -55 -7 2 -21 -5 -32 -15 -11 -10 -22 -17 -24 -15 -2 1 -14 2 -26 2 -19 0
-20 -2 -8 -10 8 -5 10 -10 4 -10 -29 0 -44 49 -45 147 -1 59 -5 90 -9 78 -5
-11 -6 -30 -3 -42 4 -16 1 -23 -10 -23 -18 0 -29 47 -13 55 8 3 7 7 -2 11 -6
3 -9 11 -6 16 4 7 2 8 -4 4 -7 -4 -12 -18 -12 -32 0 -41 -19 -26 -23 19 -2 23
-5 1 -7 -53 l-4 -95 -6 100 c-3 55 -7 84 -9 65z m-1244 -87 c-3 -10 -5 -2 -5
17 0 19 2 27 5 18 2 -10 2 -26 0 -35z m1550 -79 c-3 -3 -12 -4 -19 -1 -8 3 -5
6 6 6 11 1 17 -2 13 -5z m-1777 -25 c0 -6 -4 -7 -10 -4 -5 3 -10 11 -10 16 0
6 5 7 10 4 6 -3 10 -11 10 -16z m55 -129 c-3 -5 -12 -10 -18 -10 -7 0 -6 4 3
10 19 12 23 12 15 0z m1708 -14 c8 -19 -2 -103 -16 -136 -4 -8 -14 -37 -23
-65 -20 -63 -73 -161 -124 -230 -21 -29 -36 -56 -32 -60 4 -5 2 -5 -5 -1 -6 3
-15 2 -18 -4 -4 -6 -28 -28 -54 -48 l-48 -38 -124 16 c-110 14 -124 18 -127
35 -2 16 14 28 80 59 128 60 224 168 284 321 4 11 8 25 9 30 0 6 3 15 6 20 4
6 9 22 12 36 6 23 13 27 54 31 27 3 64 13 83 21 24 12 27 15 10 11 -19 -4 -22
-3 -10 5 21 15 37 14 43 -3z m-1743 -6 c0 -10 72 -30 107 -30 33 0 45 -18 59
-90 10 -53 35 -111 45 -104 5 3 6 -1 4 -9 -3 -7 3 -22 15 -32 11 -10 20 -24
20 -31 0 -27 140 -141 215 -175 61 -28 75 -38 73 -54 -3 -17 -15 -21 -98 -32
-174 -21 -162 -24 -255 70 -87 88 -141 172 -179 281 -12 36 -25 64 -27 62 -2
-2 -5 8 -6 22 0 15 -3 47 -6 72 -3 25 -3 48 -1 51 5 8 34 7 34 -1z m1675 0 c3
-6 -1 -7 -9 -4 -18 7 -21 14 -7 14 6 0 13 -4 16 -10z m110 -19 c3 -5 2 -12 -3
-15 -5 -3 -9 1 -9 9 0 17 3 19 12 6z m2225 -424 l-5 -412 -407 -3 -408 -2 0
415 0 415 413 0 412 -1 -5 -412z m-2790 -270 c0 -27 -82 -267 -92 -267 -9 0
-147 66 -157 76 -4 4 147 205 162 215 13 9 87 -11 87 -24z m-558 -85 l78 -107
-76 -38 c-42 -21 -81 -36 -88 -34 -9 3 -96 249 -96 271 0 6 37 13 75 14 27 1
38 -10 107 -106z m-254 -159 c42 -128 79 -233 84 -233 8 0 34 13 236 114 62
31 118 56 125 56 6 0 92 -40 189 -90 98 -49 179 -86 181 -82 3 4 37 111 77
237 39 127 74 232 75 234 2 2 66 -4 142 -13 144 -18 276 -47 325 -72 15 -8 28
-12 28 -9 0 2 30 -14 68 -36 222 -136 367 -327 427 -564 24 -94 25 -111 23
-332 l-3 -234 -217 0 c-120 0 -230 1 -245 1 l-28 0 -1 228 c-1 246 -5 266 -59
330 -15 18 -46 43 -69 55 l-41 22 -870 0 -870 0 -40 -22 c-47 -25 -85 -64
-111 -113 -17 -31 -19 -64 -22 -267 l-4 -232 -240 -3 c-132 -2 -245 0 -250 3
-7 5 -9 85 -5 240 6 277 20 349 97 504 88 177 223 314 394 400 103 51 201 78
361 99 182 24 155 48 243 -221z m1309 -557 l28 -24 0 -624 0 -623 -892 -3
-893 -2 0 621 0 621 29 29 29 29 836 0 835 0 28 -24z m2288 -546 l0 -405 -407
-3 -408 -2 0 410 0 410 408 -2 407 -3 0 -405z m-4197 -242 l2 -168 -80 0 -80
0 0 -75 0 -75 80 0 80 0 0 -165 0 -165 -62 0 c-35 0 -81 5 -102 11 -52 14
-141 103 -155 155 -12 43 -16 636 -4 648 4 3 77 5 162 4 l156 -3 3 -167z
m2417 -153 c0 -309 -1 -321 -22 -360 -47 -88 -128 -134 -235 -135 l-68 0 0
165 0 165 80 0 80 0 0 75 0 75 -80 0 -80 0 0 170 0 170 163 -2 162 -3 0 -320z
m-481 -548 c-1 -50 -6 -63 -28 -85 l-26 -27 -813 -3 c-566 -2 -823 0 -849 8
-25 7 -43 20 -53 40 -15 29 -21 111 -8 123 3 4 405 6 892 5 l886 -3 -1 -58z"/>
<path d="M4492 2901 c-71 -72 -133 -131 -138 -131 -5 0 -30 23 -56 51 l-48 52
-51 -52 -52 -51 104 -105 104 -105 127 127 c70 70 124 131 121 136 -3 6 -2 7
4 4 5 -3 34 18 63 48 l54 55 -51 51 -51 50 -130 -130z"/>
<path d="M1595 1421 c-53 -24 -111 -90 -126 -143 -13 -51 -7 -134 14 -175 51
-97 168 -149 270 -119 108 32 171 115 171 226 0 100 -51 179 -141 217 -46 19
-140 16 -188 -6z m160 -156 c51 -50 14 -139 -58 -139 -75 0 -113 79 -66 138
28 36 89 37 124 1z"/>
<path d="M4494 1291 c-71 -72 -133 -131 -139 -131 -5 0 -31 21 -57 47 l-47 46
-39 -34 c-75 -66 -76 -59 39 -175 l104 -104 182 182 c101 101 183 188 183 193
0 6 -22 32 -48 58 l-49 48 -129 -130z"/>
<path d="M2594 3613 c1 -17 5 -29 9 -26 4 2 5 -8 2 -24 -5 -26 -5 -26 5 -5 7
16 6 32 -4 55 l-13 32 1 -32z"/>
<path d="M1661 3614 c0 -11 3 -14 6 -6 3 7 2 16 -1 19 -3 4 -6 -2 -5 -13z"/>
<path d="M2015 3603 c8 -15 11 -31 8 -36 -3 -6 -1 -7 5 -3 15 9 15 39 0 54
-21 21 -27 13 -13 -15z"/>
<path d="M2738 3619 c-22 -14 -2 -21 33 -11 34 8 34 9 7 14 -15 3 -32 1 -40
-3z"/>
<path d="M4493 3595 c0 -22 2 -30 4 -17 2 12 2 30 0 40 -3 9 -5 -1 -4 -23z"/>
<path d="M1975 3610 c-3 -5 -1 -10 4 -10 6 0 11 -4 11 -10 0 -5 -8 -6 -17 -3
-15 6 -16 5 -3 -9 8 -9 17 -12 18 -7 2 5 8 7 13 3 14 -9 10 16 -5 32 -9 9 -17
10 -21 4z"/>
<path d="M2055 3610 c3 -5 8 -10 11 -10 2 0 4 5 4 10 0 6 -5 10 -11 10 -5 0
-7 -4 -4 -10z"/>
<path d="M2620 3610 c0 -5 5 -10 10 -10 6 0 10 5 10 10 0 6 -4 10 -10 10 -5 0
-10 -4 -10 -10z"/>
<path d="M662 3585 c0 -16 2 -22 5 -12 2 9 2 23 0 30 -3 6 -5 -1 -5 -18z"/>
<path d="M732 3580 c0 -14 2 -19 5 -12 2 6 2 18 0 25 -3 6 -5 1 -5 -13z"/>
<path d="M2050 3579 c0 -5 5 -7 10 -4 6 3 10 8 10 11 0 2 -4 4 -10 4 -5 0 -10
-5 -10 -11z"/>
<path d="M2697 3584 c-3 -3 -3 -12 0 -20 3 -8 0 -14 -7 -14 -6 0 -8 -4 -5 -10
3 -5 11 -10 17 -10 6 0 8 3 5 7 -4 3 0 15 9 24 16 18 60 19 887 19 479 0 873
2 875 5 3 3 -395 5 -885 5 -489 0 -892 -3 -896 -6z"/>
<path d="M2725 3549 c-4 -6 -5 -12 -2 -15 2 -3 7 2 10 11 7 17 1 20 -8 4z"/>
<path d="M2605 3510 c-4 -12 -5 -24 -2 -27 3 -2 8 5 12 17 4 12 5 24 2 27 -3
2 -8 -5 -12 -17z"/>
<path d="M2536 3423 c-6 -14 -5 -15 5 -6 7 7 10 15 7 18 -3 3 -9 -2 -12 -12z"/>
<path d="M1492 3323 c-6 -2 -9 -10 -6 -15 4 -6 2 -8 -4 -4 -6 3 -29 -3 -52
-15 -38 -20 -40 -23 -25 -39 8 -9 13 -19 10 -22 -8 -7 85 -98 101 -98 8 0 14
-4 14 -9 0 -9 31 -24 55 -27 6 0 18 -4 28 -9 17 -7 114 -9 152 -3 46 8 95 30
89 40 -4 6 -2 8 4 4 13 -8 72 41 72 60 0 9 4 13 9 10 5 -3 14 1 21 9 7 8 9 15
6 15 -4 0 0 7 8 16 25 25 19 41 -19 48 -22 5 -33 11 -29 18 4 6 3 8 -4 4 -6
-3 -13 -2 -17 4 -16 26 -67 -7 -70 -45 -1 -5 -7 -9 -14 -7 -8 2 -21 -4 -30
-11 -58 -51 -171 -34 -246 38 -17 16 -24 25 -18 21 9 -5 11 -2 7 8 -6 16 -18
19 -42 9z"/>
</g>
</svg>
