<svg xmlns="http://www.w3.org/2000/svg" width="200" height="200" viewBox="0 0 200 200">
  <!-- Fondo del icono -->
  <circle cx="100" cy="100" r="90" fill="#e0e0e0" />
  
  <!-- Engrane -->
  <circle cx="100" cy="100" r="60" fill="#ffffff" />
  <circle cx="100" cy="100" r="40" fill="#d0d0d0" />
  <path d="M100 40 L110 50 A60 60 0 0 1 160 100 L150 110 A60 60 0 0 1 100 160 L90 150 A60 60 0 0 1 40 100 L50 90 A60 60 0 0 1 100 40 Z" fill="#b0b0b0" />
  
  <!-- Llave inglesa -->
  <rect x="85" y="65" width="30" height="70" rx="5" fill="#707070" />
  <circle cx="100" cy="60" r="10" fill="#707070" />

  <!-- Texto principal -->
  <text x="100" y="115" text-anchor="middle" fill="#000000" font-size="24" font-family="Arial, sans-serif" font-weight="bold">DAT</text>

  <!-- Texto secundario -->
  <text x="100" y="140" text-anchor="middle" fill="#505050" font-size="12" font-family="Arial, sans-serif">Encope 2025</text>
</svg>